<?xml version="1.0" standalone="no"?><!DOCTYPE svg PUBLIC "-//W3C//DTD SVG 1.1//EN" "http://www.w3.org/Graphics/SVG/1.1/DTD/svg11.dtd"><svg t="1713942511938" class="icon" viewBox="0 0 1024 1024" version="1.1" xmlns="http://www.w3.org/2000/svg" p-id="18882" xmlns:xlink="http://www.w3.org/1999/xlink" width="128" height="128"><path d="M62.965565 350.6021c1.001817-8.432043 1.888-16.879436 3.025916-25.293059 8.271384-61.133336 32.739659-115.006314 73.473385-161.249521 47.043433-53.40635 105.83442-86.703711 175.799912-99.612719 138.166803-25.490557 277.151227 47.844681 334.603731 176.129416 77.528748 173.108616-18.699897 374.306988-202.150046 422.665369C279.366174 707.619306 106.384447 601.409332 70.237179 431.215092c-3.102664-14.606673-4.237511-29.631878-6.316869-44.458561-0.209778-1.49198-0.63138-2.955308-0.954745-4.430916C62.965565 371.750769 62.965565 361.175923 62.965565 350.6021zM369.712855 135.840828c-127.340223 0.324388-230.382041 103.879905-230.131331 231.279481 0.249687 126.71396 104.080473 230.096539 230.617401 229.622748 127.670751-0.478907 230.453672-103.709013 230.134401-231.133148C600.015078 238.901065 496.248759 135.518486 369.712855 135.840828z" p-id="18883" fill="#515151"></path><path d="M562.529325 668.079778c44.468794-28.927843 80.332606-64.842821 108.699678-108.448968 1.191128 1.087774 2.225691 1.960655 3.178389 2.914376 61.495586 61.4874 123.06178 122.903168 184.438663 184.509271 27.568892 27.671223 30.224372 70.335928 6.742565 100.775194-28.193109 36.544311-81.280188 40.293705-114.505917 7.817036-20.484543-20.022009-40.562834-40.45948-60.821227-60.712757-40.998763-40.98853-81.994456-81.982176-123.009591-122.95331C566.048475 670.777213 564.624033 669.797909 562.529325 668.079778z" p-id="18884" fill="#515151"></path><path d="M369.63099 188.016141c0 16.71366 0 33.026184 0 49.092092-77.544097 8.274454-120.315226 50.92381-128.977513 128.666428-15.897062 0-32.498158 0-49.093115 0C189.321368 269.493827 273.501606 185.821149 369.63099 188.016141z" p-id="18885" fill="#515151"></path></svg>